<svg version="1.2" xmlns="http://www.w3.org/2000/svg" viewBox="0 0 512 512" width="512" height="512">
	<title>file</title>
	<style>
		.s0 { fill: #000000 } 
	</style>
	<path id="Path 0" fill-rule="evenodd" class="s0" d="m433 7.1c1.4-0.1 5 1.2 8 2.7 4 2 6.2 3.9 8.5 7.6 2.8 4.7 3 5.5 2.9 14.5-0.1 6.9-0.7 11.3-4.4 22.1h6.8c3.7 0 9.4 0.7 12.7 1.5 3.3 0.9 8.2 3 10.8 4.8 2.6 1.8 6.3 5.4 8.1 8.2 1.9 2.8 4.1 7.3 5 10 1.5 4.5 1.6 19.7 1.1 305l-2.6 5.5c-1.4 3-4.3 7.5-6.5 9.8-2.1 2.4-6.4 5.6-14.9 9.7l-122 1v44l12.5 0.5c11.5 0.5 12.9 0.7 17.9 3.5 3 1.7 6.9 5 8.8 7.5 1.9 2.5 4.1 6.8 4.9 9.5 0.8 2.8 1.4 7.6 1.4 16.5h16c15.7 0 16 0 18.5 2.5 1.4 1.4 2.5 2.9 2.5 3.5 0 0.6-0.5 2-1.2 3.3-0.6 1.2-1.8 2.7-2.7 3.4-1.2 1-39.1 1.3-336.6 1.4l-2.7-2.6c-1.6-1.4-2.8-3.3-2.8-4.3-0.1-0.9 0.8-2.9 4-7.2h32.5l0.6-8.2c0.4-6.6 1.1-9.4 3.5-13.7 1.6-3 4.5-6.7 6.4-8.3 1.9-1.5 5.1-3.6 7-4.5 2.5-1.3 7-1.9 28.5-2.8v-44l-122-1-5.5-2.7c-3-1.4-7.3-4.6-9.4-7-2.2-2.3-5.1-6.8-9.1-15.3l-0.5-299 2.1-7c1.8-6 3-7.9 8.3-13.1 3.9-3.9 7.9-6.7 11.1-8 4.8-1.8 10.4-1.9 342.4-2.9l5.2-7.5c2.8-4.1 7.7-10.6 10.8-14.4 3.1-3.8 8.3-9.4 11.6-12.4 3.4-3.2 9-7 13-8.8 3.9-1.8 8.1-3.3 9.5-3.3zm-14.9 23.2c-3.4 3.4-9.1 9.8-12.6 14.2-3.4 4.4-8.9 12.3-12.2 17.5-3.3 5.2-8.3 14-11.1 19.5l-5.1 10c13.5 8.6 18.9 12 20.7 13.1l3.3 1.9c3-3.9 6.5-8.6 9.7-13 3.2-4.4 8.7-12.7 12.2-18.5 3.5-5.8 7.4-13 8.8-16 1.3-3 3.5-8.4 4.7-12 1.2-3.6 2.6-8.7 3-11.5 0.4-3 0.3-6.5-0.4-8.7-0.6-2.1-2-4.2-3.1-4.8-1.1-0.6-2.6-1-3.2-1-0.7 0.1-2.9 0.8-4.8 1.6-1.9 0.9-6.4 4.4-9.9 7.7zm-375.6 39.9c-1.6 0.9-3.7 2.4-4.6 3.4-0.9 1.1-2.5 3.5-3.5 5.4-1.8 3.4-1.9 8.4-2.1 120.8l-0.3 117.2 129.5-0.1 20.5-30.9c-112.9-0.5-113.9-0.5-116.7-2.6-1.5-1.1-3.8-3.6-5.1-5.5l-2.3-3.4 0.2-130c3.4-5.8 6.1-8.4 8.2-9.5 3.6-2 5.3-2 72.6-1.8 68.5 0.3 69 0.3 71.8 2.4 1.5 1.2 3.7 3.4 4.8 4.8 1.9 2.6 2 4.7 2.5 46.8l0.5 44.1c41.8-62.8 45.7-68.1 48.8-69.5 2-1 5.4-1.8 7.5-1.8 2.2 0 5.1 0.9 7.2 2.2 2.5 1.7 11.2 13.8 31.3 43.8 15.3 22.8 28.3 42.4 29.1 43.5 1.2 1.8 2.4 0.4 16.2-18.9 8.5-12 16.2-21.7 17.9-22.8 1.9-1.1 5-1.8 8.3-1.8 4.3 0 5.7 0.5 8.5 2.9 1.7 1.6 19 26.5 38.2 55.5l35 52.5 13.5 0.1c0-195.5-0.3-231.7-1.1-234.5-0.6-2.2-2.2-5.5-3.5-7.2-1.3-1.8-4.2-4.2-6.4-5.3-3.3-1.7-6-2-15.5-2h-11.5c-4.5 8.9-9.4 16.9-13.7 23.5-4.4 6.6-11.5 16.5-15.9 22-4.4 5.5-12.5 14.5-18 20l-10 10c1.9 5.4 2.5 9.7 2.6 13 0 4.8-0.6 7.2-2.9 12-1.7 3.3-5.2 8.4-7.8 11.4-2.6 3-7.5 7.2-10.8 9.3-3.3 2.2-8.9 4.8-12.5 5.9-4.4 1.3-9.3 1.9-15.2 1.9-4.9 0-11.2-0.5-14-1.1-2.9-0.7-6.4-1.9-7.7-2.8-1.3-0.9-3-2.8-3.7-4.3-0.8-1.6-1.4-4.3-1.4-6 0-2 1-4.7 2.5-6.8 1.3-1.9 3.4-4.8 4.5-6.5 1.1-1.7 2.4-5.2 2.9-8 0.5-2.7 1.4-8.3 2-12.2 0.6-4 2.2-9.4 3.5-12 1.3-2.7 4.3-6.5 6.7-8.6 2.4-2.1 6.6-4.4 9.4-5.3 2.8-0.8 5.9-1.4 7-1.4 1.6 0 2.5-1.6 4.8-8.7 1.6-4.9 4.6-13.1 6.8-18.3 2.3-5.2 6.1-13.3 8.5-18 2.5-4.7 4.4-8.8 4.4-9.3 0-0.4-72.3-0.6-160.7-0.6-88.5 0.1-162.4 0.4-164.3 0.8-1.9 0.4-4.8 1.5-6.5 2.3zm322.5 53.6c0 0.6 2.5 2.8 5.5 4.7l5.5 3.5c4.3-2.9 8-6.3 11-9.5 3.3-3.3 5.1-6 4.5-6.4-0.5-0.4-5-3.3-10-6.4-4.9-3.1-9.3-5.7-9.6-5.7-0.4 0-2.1 4.2-3.8 9.3-1.7 5-3.1 9.8-3.1 10.4zm-24 15.1c-1.5 1.5-3.5 5.2-4.4 8.2-0.9 3-1.6 7-1.6 8.8 0 1.7-0.5 5.6-1.1 8.4-0.6 2.9-2.2 7.3-3.5 9.8-1.3 2.5-3.1 5.5-3.9 6.7-1.5 2.3-1.4 2.3 3.3 2.9 2.6 0.4 7.9 0.4 11.7 0.1 4.9-0.4 8.8-1.5 13-3.5 3.7-1.8 7.9-5.1 10.9-8.3 2.6-3 5.7-7.1 6.7-9.2 1.1-2 1.9-5 1.9-6.7 0-1.7-0.8-4.7-1.7-6.7-1-2-3.8-5.4-6.3-7.5-2.5-2.2-6.7-4.5-9.5-5.4-2.7-0.8-5.7-1.4-6.5-1.3-0.8 0.1-2.6 0.4-3.9 0.6-1.3 0.2-3.6 1.6-5.1 3.1zm-270.2 70.9c0.2 54.4 0.4 62.4 1.7 62.8 0.8 0.3 30.4 0.5 65.8 0.5 51.3 0.1 64.4-0.2 65.4-1.2 1-1 1.2-15.5 1-63.3l-0.2-62c-102.4-0.4-132.5-0.2-133 0.2-0.5 0.3-0.8 28.7-0.7 63zm170.7 10.4l5.6 5.4c6.5-7.1 9.4-9.7 10.7-10.3 1.2-0.7 2.7-1.2 3.2-1.2 0.6 0 3.7 2.6 7 5.7l6.1 5.8c9.6-9.7 11.7-11 13.9-11 2.2 0 4.3 1.3 8.5 5.5l5.5 5.5 5-5c-24.4-36.8-32.1-47.5-32.7-47.5-0.7 0-8.4 10.6-17 23.5zm110.7 42.7c-0.1 0.7 7.7 13.2 17.5 27.8l17.8 26.5c49.2 0 62.3-0.4 62.2-0.9-0.1-0.5-14.6-22.6-32.2-49-18.5-27.7-32.7-48.1-33.5-48.1-0.9 0-8.3 9.5-16.5 21.2-8.3 11.7-15.2 21.8-15.3 22.5zm-105.9-21.5c-2-0.1-4.2-1.4-7.6-4.9-2.6-2.7-4.9-4.6-5.1-4.3-0.2 0.2-3.8 5.6-8 12l-7.7 11.5c0.1 13.6-0.5 18.9-1.3 20.7-0.7 1.8-2.8 4.5-4.7 6-2.4 1.9-5.1 2.9-8.9 3.4l-5.5 0.6-20.5 30.8h194c-43.7-65.5-56.5-84.8-56.7-85-0.2-0.3-2.5 1.6-5.1 4.3-3.6 3.6-5.5 4.8-7.7 4.8-2.4 0-4.2-1.2-8.1-5.3l-5-5.3c-9.7 9.5-11.8 10.8-14.2 10.9-2.5 0-4.2-1-8.5-5.2-2.9-2.9-5.5-5.2-5.8-5.2-0.2 0-2.8 2.3-5.6 5.1-3.8 3.8-5.8 5.1-8 5.1zm-213.4 141.3c4 6.2 6.8 9.1 8.8 10.5l3.6 2.5 419.2 0.5c7.5-3.9 9.9-6.3 12-9.5l3-4.9v-51.1l-446.5-0.5zm146 71.5h154v-45h-154zm-42.2 18c-0.9 1.4-2.2 3.7-2.8 5.2-0.5 1.5-1 5.2-1 8.3v5.5h246c-0.4-12-1.1-14.6-2.5-16.6-1.1-1.5-3.3-3.7-4.8-4.8l-2.9-2.1c-199.7-0.4-224-0.2-226.8 0.8-1.9 0.7-4.2 2.4-5.2 3.7zm-40.7-305c1.6 0 3.8 0.9 4.9 2 1.4 1.3 2 3.3 2 6.2-0.1 4 0.1 4.3 3.2 5.1 1.8 0.4 4.1 1.5 5.1 2.5 0.9 0.9 1.7 2.8 1.7 4.2 0 1.3-0.4 3-0.8 3.6-0.4 0.6-1.7 1.6-3 2.2-1.2 0.6-3.1 1.2-4.2 1.2-2 0-2 0.6-2 27 0 25.6-0.1 27.1-2 29-1.1 1.1-3.1 2-4.5 2-1.4 0-3.4-0.9-4.5-2-1.9-1.9-2-3.4-2-55.5l-4.3-1c-3.1-0.8-4.5-1.7-5.5-3.8-1-2.2-1-3.3 0-5.5 1-2 2.4-3 9.8-4.7l-0.2-4.5c-0.1-3.1 0.4-4.9 1.7-6.2 1-1 3.1-1.8 4.6-1.8zm44 0c2 0 3.5 0.8 4.9 2.7 1.9 2.5 2 4.2 2 37.3h3c1.6 0 3.9 0.8 5 2 1.1 1.1 2 3.1 2 4.5 0 1.3-0.9 3.4-2 4.5-1.1 1.1-3.4 2-8 2v13.2c0 11.8-0.2 13.6-2 16-1.4 1.9-2.9 2.8-4.8 2.7-1.5 0-3.5-0.8-4.5-1.7-1.5-1.5-1.8-3.6-1.7-30.2l-3.3-0.1c-2 0-4.1-0.8-5.5-2.2-1.2-1.2-2.3-3.1-2.3-4.2 0-1.1 0.6-2.9 1.3-3.9 0.7-1 3.1-2.1 9.3-3.2l0.1-17.9c0.1-15.8 0.3-18.2 1.9-19.7 1-1 3.1-1.8 4.6-1.8zm39.4 0c2.5 0 3.9 0.6 5 2.2 1 1.6 1.5 4.9 1.5 19.8h3.2c1.8 0 4.1 0.8 5.1 1.7 0.9 1 1.7 3.1 1.7 4.8 0 1.6-0.8 3.8-1.8 4.7-1 1.1-3.1 1.8-8.2 1.8v23c0 21.6-0.1 23.1-2 25-1.1 1.1-3.1 2-4.5 2-1.4 0-3.4-0.9-4.5-2-1.9-1.9-2-3.4-2-48l-3.3-0.1c-1.8 0-4-0.8-5-1.7-1-1-1.8-3.1-1.7-4.7 0-1.7 0.8-3.8 1.8-4.8 0.9-1 3.1-1.8 8.2-1.7l-0.1-8.8c-0.1-6.7 0.3-9.3 1.5-11 1.2-1.6 2.7-2.2 5.1-2.2zm77 190c14.9 0 15.5 0 17 2.2 0.8 1.2 1.5 3 1.5 4 0 1-1.1 2.9-2.5 4.3-2.4 2.4-2.8 2.5-16.5 2.5-13.6 0-14.1-0.1-16.5-2.5-1.4-1.4-2.5-3.4-2.5-4.5 0-1.1 0.9-2.9 2-4 1.8-1.9 3.3-2 17.5-2z"/>
</svg>