<svg version="1.2" xmlns="http://www.w3.org/2000/svg" viewBox="0 0 512 512" width="512" height="512">
	<title>file</title>
	<style>
		.s0 { fill: #000000 } 
	</style>
	<path id="Path 0" fill-rule="evenodd" class="s0" d="m255.5 0.1c9.4-0.1 14 0.4 21.5 2.3 5.2 1.3 12.9 3.8 17 5.6 4.1 1.7 10.6 5.2 14.5 7.7 3.9 2.5 10.8 8.4 15.5 13.2 4.7 4.7 10.7 12 13.2 16.1 2.6 4.1 6 10.9 7.7 15 1.6 4.1 3.8 10.7 4.8 14.5 1.2 5.1 1.7 11 1.7 21.5 0 11.9-0.4 16-2.3 23-1.2 4.7-3.4 11.2-4.9 14.5-1.4 3.3-4.4 9.1-6.7 13-2.6 4.5-7.8 10.8-25.5 28.5v17h28.5l61.2-133.5 14.9-11.3c8.2-6.2 18.7-13.9 23.4-17.2 4.7-3.4 9.5-6.1 10.8-6 1.2 0 3.4 1 4.8 2.2 2.5 2.2 2.7 3.1 5.5 30.3 2.1 19.5 2.7 28.9 2.1 31-0.5 1.7-11.4 25.6-24.1 53.3-12.7 27.6-23.1 50.4-23.1 50.7 0 0.3 2.8 0.5 6.3 0.5 4.7-0.1 6.9 0.4 9 2 2 1.5 2.7 2.9 2.7 5.2 0 1.8-0.9 7.8-2 13.3-1.2 5.5-3.6 19.2-5.5 30.5-1.8 11.3-4.5 29.5-5.9 40.5-1.4 11-3.3 27.2-4.2 36-0.8 8.9-1.8 31.1-2.1 50-0.4 22.4-0.2 38.6 0.6 47.5 0.7 7.4 1.9 17.8 2.7 23 0.9 5.2 2.2 12.2 2.9 15.5 0.8 3.3 2.4 9.1 3.6 13 1.1 3.9 3.5 10.1 5.1 14 1.7 3.9 4.8 9.7 6.9 13 2.1 3.3 3.9 7.2 3.9 8.7 0 1.7-1 3.8-2.5 5.3-1.5 1.6-3.5 2.5-5.5 2.5-2 0-3.9-0.9-5.7-2.8-1.6-1.5-4.9-6.8-7.5-11.7-2.6-5-6.5-14.4-8.7-21-2.2-6.6-4.9-16.5-6-22-1.1-5.5-2.8-15.6-3.8-22.5-1.4-10.4-1.8-19.6-1.8-54 0-32.4 0.4-45.5 1.8-59.5 1-9.9 2.9-26.8 4.3-37.5 1.4-10.7 4.3-30.1 6.5-43 2.2-12.9 4.3-25 5.4-30h-88.5v17.5c0 17.2 0 17.5-2.5 20-2.3 2.4-2.8 2.5-29.5 2.5l-0.6 5.7c-0.4 3.5-2 8.4-4 12.3-1.9 3.8-5.3 8.4-8.1 11-2.6 2.4-7.7 5.8-11.3 7.5-5.8 2.7-7.5 3-16 3-8.5 0-10.2-0.3-16-3-3.6-1.7-8.7-5.1-11.3-7.5-2.8-2.6-6.2-7.2-8.1-11-2-3.9-3.6-8.8-4.6-18h-13.5c-13.1 0-13.6-0.1-16-2.5-2.5-2.5-2.5-2.7-2.5-37.5h-88v98l-25.9 45.5 11 0.5c10.3 0.5 11.2 0.7 13 3 1.8 2.3 2 4.2 2 21.5-0.1 13.7 0.4 20.8 1.5 25.5 0.8 3.6 3 9.2 4.7 12.5 1.8 3.3 5.9 8.7 9.2 12 3.5 3.5 8.7 7.3 12.5 9.3 3.6 1.8 9.9 3.9 14 4.8 6.3 1.3 10 1.3 23.5 0.4 8.8-0.6 21.2-1.8 27.5-2.6 6.3-0.8 16.7-2.6 23-3.9 6.3-1.4 15.8-3.8 21-5.3 5.2-1.6 11.8-3.8 14.5-4.9 2.8-1.1 8.6-3.9 13-6.1 4.4-2.3 10-5.5 12.5-7.1 2.5-1.7 5.7-3.1 7.3-3.1 1.6 0 3.7 1 5.2 2.5 1.4 1.4 2.5 3.6 2.5 5 0 1.4-0.4 3.3-0.9 4.2-0.4 1-3.7 3.6-7.2 5.9-3.5 2.3-9.5 5.7-13.4 7.6-3.9 2-11.5 5.2-17 7.3-5.5 2-15.8 5.2-23 7-7.2 1.8-17.9 4.1-24 5.1-6.1 0.9-11.1 1.7-11.2 1.8-0.1 0.1 1.8 11.1 4.2 24.6 2.5 13.5 4.5 25.3 4.5 26.2 0 1-1.1 2.9-2.5 4.3-1.4 1.4-3.6 2.5-5.2 2.5-1.5 0.1-3.9-0.7-5.2-1.7-2.1-1.6-2.9-4.7-7.2-27.8-2.7-14.3-5-26.1-5.2-26.2-0.1-0.1-6.5 0.3-14.2 0.8-9.2 0.6-16.5 0.6-21.3-0.1-3.9-0.5-10-1.9-13.4-3.1-3.5-1.1-8.5-3.4-11.3-4.9-2.7-1.6-7-4.6-9.5-6.7-2.5-2.1-6.2-5.6-8.2-7.8-2-2.2-5.2-6.7-7.2-10-2-3.3-4.8-9.6-6.3-14-2.3-7.1-2.6-9.9-3.3-42.5h-13.5c-13.1 0-13.6-0.1-16-2.5-1.4-1.4-2.5-3.6-2.5-5 0-1.4 7.1-14.9 32-58.5v-105l2.5-2.5c1.8-1.9 3.5-2.5 6.5-2.5 2.2 0 4-0.3 4-0.8 0-0.4-10.1-31.8-22.5-69.7-12.4-38-22.5-69.9-22.5-71-0.1-1.1 0.7-3 1.7-4.2 1.4-1.7 9.5-4.8 32.8-12.3 17.1-5.5 31.8-10 32.8-10 0.9 0 2.8 1 4.1 2.3 2 1.7 7 16.2 24.1 68.7 11.9 36.6 23.8 73.4 31.5 97h25v-17l-10.7-10.8c-7-6.9-12.2-13.1-14.8-17.7-2.3-3.8-5.3-9.7-6.7-13-1.5-3.3-3.7-9.8-4.9-14.5-1.9-7-2.3-11.1-2.3-23 0-10.5 0.5-16.4 1.7-21.5 1-3.8 3.2-10.4 4.8-14.5 1.7-4.1 5.1-10.9 7.7-15 2.7-4.4 8.5-11.4 14.2-17q9.6-9.5 17.5-14.1c4.4-2.5 10.3-5.5 13-6.7 2.8-1.1 9.3-3.2 14.5-4.6 7.5-1.9 12.1-2.5 21.5-2.5zm-26.5 20.7c-3 1-7.1 2.7-9 3.7-1.9 1-6 3.5-9 5.5-3 2.1-8.1 6.3-11.2 9.4-3.2 3.1-7.9 8.9-10.6 12.8-2.6 4-6 10.7-7.6 14.8-1.5 4.1-3.4 10.8-4.2 14.7-0.8 4-1.4 10.5-1.4 14.3 0 3.8 0.6 10.3 1.4 14.2 0.8 4 2.7 10.7 4.2 14.8 1.6 4.1 5 10.8 7.6 14.7 2.7 4 7.2 9.7 10.1 12.6 2.8 2.8 7.3 6.7 10 8.5 2.6 1.7 5.1 4.1 5.7 5.2 0.6 1.1 1 7.4 1 14v12h16c-0.8-13.6-1.5-22.4-2.1-28.5-0.5-6.1-1.7-16.3-2.7-22.8l-1.7-11.7c-8.1 0-11.5-0.5-12.7-1.2-1.3-0.6-2.8-1.8-3.5-2.7-0.7-0.9-1.3-2.8-1.3-4.4 0-1.6 1-3.7 2.5-5.2 1.9-1.9 3.4-2.5 7-2.5h4.5c-2.5-8.1-4.4-13.2-5.9-16.5-1.5-3.3-3.9-7.8-5.4-10-1.5-2.2-2.7-5.2-2.7-6.8 0-1.5 1.1-3.8 2.5-5.2 1.5-1.6 3.5-2.5 5.5-2.5 1.8 0 3.9 0.9 5.3 2.2 1.3 1.3 4.6 6.8 7.3 12.3 2.8 5.5 6.1 13.7 7.5 18.3l2.4 8.2h35.5c0.9-5 2.1-9.2 3.2-12.5 1.1-3.3 4.1-10.1 6.6-15 2.6-5 5.6-10 6.9-11.3 1.3-1.3 3.4-2.2 5.3-2.2 1.9 0 3.9 0.9 5.5 2.5 1.4 1.4 2.5 3.6 2.5 5 0 1.4-1.8 5.5-4 9.2-2.1 3.8-5.1 9.8-6.5 13.5-1.4 3.8-2.5 7.7-2.5 8.8 0 1.7 0.7 2 4 2 2.9 0 4.7 0.7 6.5 2.5 1.4 1.4 2.5 3.7 2.5 5.2 0 1.6-0.9 3.8-2 5-1.1 1.3-3 2.5-4.2 2.8-1.3 0.3-4.3 0.6-6.8 0.7l-4.4 0.3c-2 11.6-3.2 21.3-4 29-0.8 7.7-1.7 18.4-2 23.7l-0.6 9.8h16c0-18.6 0.4-24.9 1-26 0.6-1.1 3.1-3.5 5.8-5.2 2.6-1.8 7.1-5.7 10-8.5 2.8-2.9 7.3-8.6 10-12.6 2.6-3.9 6-10.6 7.6-14.7 1.5-4.1 3.4-10.8 4.2-14.8 0.8-3.9 1.4-9.9 1.4-13.2 0-3.3-0.5-9.3-1.1-13.3-0.6-3.9-2.5-11-4.2-15.7-1.7-4.7-5.2-11.7-7.7-15.5-2.6-3.9-7.2-9.6-10.3-12.8-3.2-3.1-9.2-8-13.4-10.7-4.3-2.8-10.3-6-13.3-7.1-3-1.1-8-2.7-11-3.5-3-0.8-10.2-1.7-16-1.9-6.7-0.3-13.1 0-17.5 0.9-3.8 0.8-9.5 2.3-12.5 3.4zm-125.2 23.9c0.1 0.4 10.8 33.8 23.9 74l23.8 73.3c5.4 0 6.4-0.4 6.2-1.3-0.2-0.6-11-34.4-24-75-13.1-40.5-24.1-73.7-24.5-73.6-0.4 0-1.8 0.4-3.1 0.9-1.4 0.5-2.4 1.3-2.3 1.7zm321.2 16.3c0 0.3 4.1 2.5 9.2 4.9 5.1 2.4 9.9 4.6 10.7 5 1.2 0.5 1.3-0.9 0.6-9.4-0.4-5.5-1.1-11-1.5-12.1-0.7-2.1-1.3-1.8-9.9 4.5-4.9 3.6-9.1 6.8-9.1 7.1zm-358.5-3.8c0.2 0.7 10.1 31.2 22 67.8 11.9 36.6 21.7 66.6 21.8 66.7 0.1 0.2 5.6 0.2 12.2 0l12.1-0.2c-35.7-109.5-46.4-141.5-46.7-141.8-0.3-0.2-5.4 1.1-11.2 3-7.2 2.2-10.5 3.7-10.2 4.5zm294.8 127.5l-3.3 7.3 11.4-0.5c39.9-86.8 51.6-112.6 51.6-113.3 0-0.6-1.8-1.9-4-2.7-2.2-0.8-4.2-1.5-4.4-1.5-0.2 0-11.1 23.3-24.2 51.7-13 28.5-25.2 55.1-27.1 59zm47.7-41.2c-11.7 25.3-21.5 46.6-21.8 47.3-0.6 1.1 0.5 1.3 5.1 1l5.8-0.3c36.4-79 46.9-102.3 46.9-102.8 0-0.4-1.8-1.4-4-2.2-2.2-0.8-4.2-1.5-4.5-1.5-0.4 0-1.9 2.8-3.4 6.2-1.6 3.5-12.4 27-24.1 52.3zm-165.6-2.8c0.8 5.4 1.9 15.2 2.5 21.8 0.6 6.6 1.3 15.9 1.6 20.7l0.5 8.8h16c0.8-13.6 1.5-22.9 2.1-29.5 0.6-6.6 1.7-16.4 2.5-21.8 0.8-5.3 1.4-10.1 1.4-10.7 0-0.6-5.3-1-14-1-8.7 0-14 0.4-14 1 0 0.6 0.6 5.4 1.4 10.7zm-43.4 91.3h112v-24h-112zm33.2 23.5c0.8 2.4 3.2 6 6.3 9 3 3.1 6.6 5.5 9 6.3 2.2 0.6 5.6 1.2 7.5 1.2 1.9 0 5.3-0.6 7.5-1.2 2.4-0.8 6-3.2 9-6.3 3.1-3 5.5-6.6 6.3-9 0.6-2.2 1.2-4.8 1.2-5.8 0-1.6-1.8-1.7-24-1.7-22.2 0-24 0.1-24 1.8 0 0.9 0.6 3.5 1.2 5.7z"/>
</svg>