<svg version="1.2" xmlns="http://www.w3.org/2000/svg" viewBox="0 0 512 512" width="512" height="512">
	<title>file</title>
	<style>
		.s0 { fill: #000000 } 
	</style>
	<path id="Path 0" fill-rule="evenodd" class="s0" d="m131.5 0h216.5l6.8 3.1c4.6 2 8.2 4.6 11.5 8.2 2.8 3 5.6 7.4 6.8 10.5 1.9 5.1 1.9 10.1 1.9 234.2 0 224.1 0 229.1-1.9 234.3-1.2 3-4 7.4-6.8 10.4-3.3 3.6-6.9 6.2-18.3 11.3l-321.5-0.1-6-2.8c-3.6-1.7-7.9-5-10.8-8-2.6-2.8-5.7-7.2-9.2-14.6l-0.5-354.5 3-6.8c2.9-6.3 6.3-10 58.8-62.5 51.6-51.7 56.2-56.1 62.7-59.2zm5 109.4c-4.8 10.1-8 14.8-10.1 17-2.1 2.1-6.8 5.3-10.4 7l-6.5 3-92.5 0.5c0 291.2 0.3 344.9 1.1 346.8 0.5 1.5 2.2 4 3.7 5.6 1.5 1.6 4.2 3.5 6 4.3 2.7 1.1 29.1 1.3 159.9 1.3 148.5 0 157-0.1 160.8-1.8 2.2-1 5.1-3.3 6.5-5.2l2.5-3.5v-457c-3.9-5.3-6.8-7.7-9-8.6-3.8-1.7-10.2-1.8-107.7-1.8l-103.7-0.1zm-107 9.5l78 0.1c5.5-3.6 8.1-6.2 9.3-8.1 2.3-3.5 2.3-3.5 2.3-42.2 0-21.3-0.2-38.8-0.3-38.8-0.2 0-20.3 20.1-44.8 44.5zm422.5-118.9c16.4-0.1 18 0.1 24.5 2.5 3.9 1.4 9.2 4 11.9 5.7 2.7 1.8 7.4 5.8 10.3 9 2.9 3.1 6.6 8.5 8.2 12 1.6 3.4 3.4 8.6 4 11.5 0.8 3.6 1.1 30 1.1 160.2l-2.5 4c-1.3 2.2-3.4 4.5-4.5 5-1.9 1-2 2-2 188.5l-2.3 5c-1.3 2.8-3.9 6.3-5.7 7.9-1.9 1.6-4.7 3.5-9 5.6v20c0 12.8-0.4 20.8-1.1 22.3-0.6 1.2-2.4 3.6-3.9 5.2-2.7 2.9-2.8 3.4-3.2 16-0.3 10.9-0.7 13.7-2.5 17-1.1 2.2-3.6 5.4-5.4 7.2-1.9 1.7-5.3 4.1-7.6 5.2-2.9 1.5-6.2 2.1-10.3 2.1-4.5 0-7.1-0.6-10.7-2.5-2.6-1.4-5.8-3.6-7.1-4.8-1.2-1.2-3.4-4.4-4.7-7.2-2.3-4.5-2.5-6.2-2.5-17.7 0-12.6 0-12.8-2.5-14.5-1.5-1-3.5-3.6-4.5-5.8-1.7-3.5-1.9-6.4-1.9-23.7-0.1-19.6-0.1-19.8-2.3-20.4-1.3-0.4-4-2.3-6.1-4.3-2.2-2-4.9-5.4-6-7.6-2.2-4-2.2-4.3-2.7-192l-2.9-3c-1.5-1.6-3.3-4-3.9-5.2-0.8-1.6-1.2-25.1-1.2-81.5 0-76.4 0.1-79.5 2-85.8 1.1-3.5 3.8-9.2 5.9-12.5 2.2-3.3 5.7-7.6 7.8-9.5 2.1-2 6.1-4.9 8.8-6.5 2.8-1.6 7.7-3.9 11-5.1 5.3-1.9 8.2-2.2 23.5-2.3zm-25.9 22.2c-3 1.8-7.2 5.5-9.3 8.2-2.1 2.8-4.5 7.3-5.3 10-1.3 4.3-1.5 16.4-1.5 80.3v75.2h85l-0.5-153.5c-3.5-7.3-6.6-11.8-9.2-14.5-2.7-2.9-7.2-6.3-10.3-7.8-5.1-2.4-6.6-2.6-20.5-2.8-8.2-0.2-16.8 0.2-19 0.7-2.2 0.5-6.4 2.4-9.4 4.2zm-8.1 372.7l6 6h57.1l4.9-5v-183h-68zm17 57h34v-34h-34zm9 27.5c0 9.2 0.3 10.8 2 12.5 1.1 1.1 3.3 2.3 4.8 2.7 1.7 0.4 3.7 0.1 5.2-0.8 1.4-0.8 3.1-2.6 3.8-3.9 0.7-1.4 1.2-6.4 1.2-11.7v-9.3h-17zm-168-445c5.7 0.3 12.3 1.3 16.5 2.6 3.9 1.1 9.7 3.6 13 5.4 3.3 1.9 8.3 5.1 11 7.3 2.8 2.2 7.2 6.8 9.9 10.3 2.7 3.5 6.2 9.1 7.9 12.4 1.6 3.3 3.8 9.4 4.9 13.5 1.1 4.6 1.9 11 1.9 16.5 0 5.9-0.8 11.8-2.1 17-1.1 4.4-3.7 11.2-5.7 15-2.5 4.8-6.4 9.8-12.2 15.6-7.3 7.4-10 9.4-18.1 13.2-5.2 2.5-12.2 5.1-15.5 5.8-3.3 0.7-10 1.3-15 1.3-5-0.1-11.9-0.8-15.5-1.7-3.5-0.9-10.3-3.6-15-5.8-6.8-3.4-10.2-5.9-17-12.8-6.9-6.9-9.4-10.3-12.7-17.1-2.2-4.6-4.8-11.7-5.7-15.7-0.9-4-1.6-10.8-1.5-15 0-4.3 0.6-10.7 1.3-14.3 0.8-3.5 2.7-9.4 4.3-13 1.6-3.5 4.3-8.5 6-11 1.7-2.4 5.3-6.7 8-9.5 2.7-2.7 7.6-6.7 10.9-8.9 3.3-2.2 8.6-5 11.9-6.4 3.3-1.3 9-3 12.5-3.8 4-0.8 10.2-1.2 16-0.9zm-25.5 22.1c-3.9 1.8-8.4 5.3-13.1 9.9-4.9 4.8-8 9-10.1 13.5-1.7 3.6-3.6 8.9-4.2 11.8-0.6 2.9-1.1 7.7-1.1 10.7 0 3.1 0.5 7.9 1.1 10.8 0.6 2.9 2.5 8.2 4.2 11.7 2 4.3 5.3 8.8 9.6 13.1 3.7 3.7 8.9 7.8 11.6 9.2 2.8 1.4 7.7 3.3 11 4.3 3.6 1 9.3 1.7 14 1.7 4.6 0 10.4-0.7 13.5-1.7 3.1-0.9 8.2-3.1 11.4-4.9 3.3-1.7 8.4-5.9 11.5-9.2 3.1-3.3 6.8-8.3 8.3-11 1.5-2.7 3.4-7.7 4.3-11 0.8-3.3 1.5-9.1 1.5-13 0-3.8-0.7-9.7-1.5-13-0.9-3.3-2.9-8.4-4.5-11.5-1.6-3-5-7.6-7.4-10.2-2.5-2.6-6.9-6.3-9.8-8.2-2.9-2-8-4.4-11.3-5.6-3.3-1.1-9.3-2.2-13.5-2.5-4.5-0.2-9.9 0.1-13.5 0.9-3.3 0.8-8.7 2.7-12 4.2zm201.5 11.5c1.4 0 4.9 0.6 7.8 1.4 3.9 1.1 6.6 2.9 10.2 6.5 3.7 3.7 5.4 6.4 6.5 10.3 1.2 3.8 1.6 10.2 1.5 24 0 10.3-0.4 19.9-1 21.2-0.5 1.4-2.4 3.1-4.2 3.9-1.8 0.7-4.2 1.2-5.3 1-1.1-0.2-2.9-1.3-4-2.5-1.4-1.4-2.1-3.9-3-14.4l-16.5-0.5v5c0 2.8-0.6 6.4-1.5 8-0.9 1.8-2.6 3.3-4.2 3.7-1.5 0.4-3.7 0.6-4.8 0.4-1.1-0.1-3-1.2-4.2-2.4-2.3-2.1-2.3-2.6-2.3-24.2 0.1-19 0.3-22.5 1.9-26 1-2.2 3.3-5.5 5.2-7.4 1.9-1.8 4.8-4 6.4-4.9 1.7-0.8 4.4-1.8 6-2.2 1.7-0.4 4.2-0.8 5.5-0.9zm-5.7 20.3c-1.9 1.7-2.3 3.2-2.3 7.9v5.7h17c-0.4-10.3-1-12.4-2.5-13.9-1.1-1.1-3.1-2.2-4.5-2.4-1.3-0.3-3.1-0.3-4 0-0.8 0.3-2.5 1.5-3.7 2.7zm-178.3 116.6l2.5 2.5c1.6 1.6 2.5 3.7 2.5 5.5 0 2-1 4.1-5.8 9h-78.6c-50 0-79.5-0.3-81.1-1-1.3-0.5-3.1-2.5-4-4.5-1.1-2.5-1.2-4.1-0.5-6 0.6-1.3 2-3.1 3.3-4 1.9-1.3 12.6-1.5 161.7-1.5zm-203.8 60h123.4c122.1 0 123.5 0.1 125.4 2 1.1 1.1 2.3 3 2.6 4.3 0.4 1.2-0.1 3.7-1 5.5-1.1 2.3-2.6 3.5-5.3 4.3-2.6 0.7-42.5 0.9-244.1 0.4l-2.6-2.5c-1.7-1.6-2.6-3.6-2.7-5.6 0-1.8 0.8-4.2 2.1-5.7zm2.1 58.9l122.3 0.3c120.9 0.3 122.4 0.3 124.4 2.3 1.1 1.1 2.3 3.3 2.6 5 0.5 2.3 0.1 3.7-4.5 9.5h-246l-2.5-2.5c-1.7-1.7-2.6-3.7-2.6-5.9 0-2.7 0.7-4 3.1-6.1zm-1.3 60.1h245.1l2.8 2.4c2 1.8 2.7 3.3 2.7 6.1 0 2.7-0.7 4.2-5.5 8.5h-245l-2.5-2.5c-1.7-1.8-2.5-3.6-2.4-6.1q0-3.5 2.4-6zm0 60h246.1l2.6 3.3c2 2.5 2.5 3.9 2 6.2-0.4 1.7-1.5 3.9-2.7 5-1.9 2-3.5 2-123.2 2.3-66.6 0.2-122.2 0-123.4-0.3-1.3-0.2-3.2-1.5-4.3-2.7-1.2-1.4-2-3.6-2-5.6 0.1-2 1-4.2 2.5-5.7zm210.6-375.3c2.7 0.2 6.3 1 8 1.7 1.6 0.7 4.5 2.6 6.4 4.2 1.8 1.6 4.5 5.1 6 7.9 2.5 4.8 2.6 5.7 2.9 25 0.2 11 0.1 21-0.2 22.2-0.3 1.3-1.5 3.2-2.6 4.3-1.3 1.2-3.4 2-5.8 2-2.6 0-4.4-0.7-5.9-2.2-1.7-1.8-2.3-3.8-2.8-14.3l-16.5-0.5v3.2c0 1.8-0.2 4.6-0.5 6.3-0.3 1.6-1.4 4-2.5 5.2-1.4 1.6-3.1 2.3-5.8 2.3-2.7 0-4.4-0.7-6.2-2.6-2.4-2.5-2.5-3-2.8-19.8-0.2-9.7 0.1-19.7 0.7-23.1 0.6-3.3 2.4-8.1 3.9-10.5 1.8-3 4.7-5.7 8.2-7.8 3-1.7 6.6-3.4 8-3.6 1.4-0.2 4.7-0.2 7.5 0.1zm-9.8 20.6c-0.4 0.9-0.7 4.1-0.7 7.2v5.5h17c0-5.8-0.4-9-1-10.8-0.6-2-2.1-3.8-4-4.7-1.7-0.9-3.3-1.5-3.8-1.5-0.4 0-2.1 0.6-3.7 1.3-1.7 0.7-3.3 2.1-3.8 3z"/>
</svg>